<?xml version="1.0" encoding="utf-8"?>
<!-- Generator: Adobe Illustrator 19.2.0, SVG Export Plug-In . SVG Version: 6.00 Build 0)  -->
<svg version="1.1" id="Layer_1" xmlns="http://www.w3.org/2000/svg" xmlns:xlink="http://www.w3.org/1999/xlink" x="0px" y="0px"
	 viewBox="0 0 700.8 212.2" style="enable-background:new 0 0 700.8 212.2;" xml:space="preserve">
<style type="text/css">
	.st0{fill:#FFFFFF;}
	.st1{fill:#00288C;}
	.st2{fill:#000014;}
	.st3{fill:#00000A;}
	.st4{fill:#00001E;}
</style>
<g id="artwork">
	<rect class="st0" width="700.8" height="212.2"/>
	<g id="logo-msa">
		<g id="academy_4_">
			<path class="st1" d="M175.4,123.1h4.6l12.1,31h-4.6l-3.4-9.3H171l-3.5,9.3h-4.3L175.4,123.1z M172.3,141.3h10.5l-5.2-14.5h-0.1
				L172.3,141.3z"/>
			<path class="st1" d="M216.2,132.4c-0.9-4.4-4.3-6.6-8.7-6.6c-7.4,0-10.5,6.1-10.5,12.5c0,7.1,3.1,13,10.5,13
				c5.4,0,8.6-3.8,8.9-8.9h4.1c-0.8,7.8-5.6,12.4-13.4,12.4c-9.6,0-14.3-7.1-14.3-16.1s5.1-16.3,14.7-16.3c6.5,0,11.8,3.5,12.8,10.1
				L216.2,132.4L216.2,132.4z"/>
			<path class="st1" d="M233.5,123.1h4.6l12.1,31h-4.6l-3.4-9.3h-13.1l-3.5,9.3h-4.3L233.5,123.1z M230.4,141.3h10.5l-5.2-14.5h-0.1
				L230.4,141.3z"/>
			<path class="st1" d="M252.6,123.1h10.6c9.5,0,14.9,4.8,14.9,14.8c0,10.4-4.6,16.2-14.9,16.2h-10.6V123.1z M256.7,150.6h6.9
				c2.8,0,10.4-0.8,10.4-12.2c0-7.4-2.7-11.8-10.3-11.8h-6.9v24H256.7z"/>
			<path class="st1" d="M282.5,123.1h21.4v3.5h-17.3v9.9h16.1v3.5h-16.1v10.7H304v3.5h-21.5V123.1z"/>
			<path class="st1" d="M308.4,123.1h5.6l9.8,26l9.8-26h5.6v31h-3.9v-25.8h-0.1l-9.7,25.8H322l-9.7-25.8h-0.1v25.8h-3.9v-31H308.4z"
				/>
			<path class="st1" d="M358.3,141.4v12.7h-4.1v-12.7l-12-18.3h4.9l9.3,14.8l9.1-14.8h4.7L358.3,141.4z"/>
		</g>
		<g id="mindsports_10_">
			<path class="st2" d="M163.8,58.4h17l12.9,37.8h0.2L206,58.4h17v55h-11.3v-39h-0.2l-13.5,39h-9.3l-13.5-38.6H175v38.6h-11.3v-55
				H163.8z"/>
			<path class="st2" d="M229.8,58.4h12.1v55h-12.1V58.4z"/>
			<path class="st2" d="M248.7,58.4h12l22.9,36.9h0.2V58.4h11.3v55H283l-22.9-36.8H260v36.8h-11.3V58.4z"/>
			<path class="st2" d="M301.9,58.4h23.7c14.2,0,24.9,9,24.9,27.2c0,15.9-8.2,27.8-24.9,27.8h-23.7V58.4z M313.9,103.2h10.8
				c7,0,13.7-4.3,13.7-16.5c0-11.1-3.9-18.2-15.9-18.2h-8.6V103.2z"/>
			<path class="st2" d="M363.3,95.1c0,7.3,5.7,10.2,12.2,10.2c4.2,0,10.7-1.2,10.7-6.9c0-6-8.3-6.9-16.3-9.1
				c-8.2-2-16.4-5.5-16.4-15.6c0-11.3,10.6-16.6,20.6-16.6c11.5,0,22,5,22,17.7h-11.7c-0.4-6.5-5-8.3-10.9-8.3
				c-3.8,0-8.3,1.6-8.3,6.2c0,4.2,2.6,4.9,16.4,8.3c4.1,0.9,16.3,3.6,16.3,16c0,10.1-7.9,17.6-22.9,17.6c-12.2,0-23.6-6-23.4-19.6
				L363.3,95.1L363.3,95.1z"/>
			<path class="st2" d="M401.2,58.4H426c13.8,0,19,8.7,19,17.6s-5.2,17.6-19,17.6h-12.7v19.7h-12.1L401.2,58.4L401.2,58.4z
				 M413.3,84.3h9.4c5.5,0,10.6-1.2,10.6-8.2s-5.1-8.2-10.6-8.2h-9.4V84.3z"/>
			<path class="st2" d="M473.3,57.1c16.9,0,27,12.7,27,29c0,15.9-10.1,28.6-27,28.6s-27-12.7-27-28.6
				C446.3,69.8,456.4,57.1,473.3,57.1z M473.3,104.5c10.9,0,14.9-9.2,14.9-18.4c0-9.6-4.1-18.9-14.9-18.9s-14.9,9.2-14.9,18.9
				C458.4,95.3,462.5,104.5,473.3,104.5z"/>
			<path class="st2" d="M504.7,58.4h29.6c9.9,0,16.1,6.9,16.1,15.2c0,6.5-2.5,11.3-8.7,13.8v0.2c5.9,1.6,7.6,7.2,8,12.9
				c0.2,3.5,0.1,10,2.3,13h-12c-1.4-3.5-1.3-8.8-1.9-13.2c-0.8-5.8-3.1-8.3-9.2-8.3h-12.1v21.5h-12.1L504.7,58.4L504.7,58.4z
				 M516.8,83.3H530c5.5,0,8.3-2.3,8.3-7.9c0-5.3-2.8-7.6-8.3-7.6h-13.2V83.3z"/>
			<path class="st2" d="M568.7,68.6h-16.5V58.4h45v10.2h-16.5v44.8h-12.1L568.7,68.6L568.7,68.6z"/>
			<path class="st2" d="M607.9,95.1c0,7.3,5.7,10.2,12.2,10.2c4.2,0,10.7-1.2,10.7-6.9c0-6-8.3-6.9-16.3-9.1
				c-8.2-2-16.4-5.5-16.4-15.6c0-11.3,10.6-16.6,20.6-16.6c11.5,0,22,5,22,17.7H629c-0.4-6.5-5-8.3-10.9-8.3c-3.8,0-8.3,1.6-8.3,6.2
				c0,4.2,2.6,4.9,16.4,8.3c4.1,0.9,16.3,3.6,16.3,16c0,10.1-7.9,17.6-22.9,17.6c-12.2,0-23.6-6-23.4-19.6L607.9,95.1L607.9,95.1z"
				/>
		</g>
		<g id="shield_4_">
			<g id="shield_9_">
				<path class="st1" d="M105.9,149.4c-5.1-1.4-39.5-12-39.5-49.3V60c5-1.2,19.8-4.3,39.5-4.3c19.6,0,34.5,3.1,39.5,4.3v40.1
					C145.4,137.3,110.7,148.1,105.9,149.4z"/>
				<path class="st0" d="M105.9,58.2c17.3,0,30.8,2.4,37,3.8v38.1c0,15.8-6.3,28.4-18.7,37.6c-7.6,5.7-15.4,8.3-18.3,9.1
					c-2.9-0.9-10.7-3.5-18.3-9.3c-12.4-9.2-18.7-21.9-18.7-37.5V62C75,60.6,88.5,58.2,105.9,58.2 M105.9,53.2c-24.9,0-42,4.9-42,4.9
					s0,0,0,42s42,51.9,42,51.9s42-9.6,42-51.9c0-41.7,0-42,0-42l0,0C147.9,58.1,130.8,53.2,105.9,53.2L105.9,53.2z"/>
				<path class="st3" d="M105.9,53.2c24.9,0,42,4.9,42,4.9l0,0c0,0,0,0.3,0,42c0,42.3-42,51.9-42,51.9s-42-9.9-42-51.9s0-42,0-42
					S81,53.2,105.9,53.2 M105.9,47.2c-25.4,0-42.9,4.9-43.6,5.1l-4.4,1.2V58v42c0,19.2,8.1,35.3,23.4,46.5
					c11.4,8.4,22.7,11.1,23.2,11.2l1.4,0.3l1.4-0.3c0.5-0.1,11.8-2.8,23.2-11.1c10.7-7.8,23.5-22.3,23.5-46.7v-42v-4.5l-4.4-1.2
					C148.8,52.1,131.3,47.2,105.9,47.2L105.9,47.2z"/>
			</g>
			<path id="eye_3_" class="st0" d="M147.9,99.8c0,0-18.8,17.2-42,17.2s-42-17.2-42-17.2s18.8-17.2,42-17.2S147.9,99.8,147.9,99.8z"
				/>
			
				<ellipse id="pupil_3_" transform="matrix(0.7071 -0.7071 0.7071 0.7071 -39.5263 104.1239)" class="st4" cx="105.9" cy="99.8" rx="15.1" ry="15.1"/>
			<polygon id="shine_3_" class="st0" points="105.9,99.8 91.7,91.4 89.9,95.1 			"/>
		</g>
	</g>
</g>
</svg>
